{
    "asset" : {
        "generator" : "Khronos glTF Blender I/O v1.7.33",
        "version" : "2.0"
    },
    "scene" : 0,
    "scenes" : [
        {
            "name" : "Scene",
            "nodes" : [
                0,
                1
            ]
        }
    ],
    "nodes" : [
        {
            "mesh" : 0,
            "name" : "Prada_Logo_Mat_0",
            "rotation" : [
                0.7071068286895752,
                0,
                0,
                0.7071067094802856
            ],
            "scale" : [
                0.43034279346466064,
                0.5155938267707825,
                0.3929077982902527
            ],
            "translation" : [
                0,
                4.960685729980469,
                0.45841068029403687
            ]
        },
        {
            "mesh" : 1,
            "name" : "Renova_Shopping_Bag",
            "rotation" : [
                0.7071068286895752,
                0,
                0,
                0.7071067094802856
            ],
            "scale" : [
                0.5784463286399841,
                0.4777805507183075,
                0.4777805507183075
            ],
            "translation" : [
                0,
                2.494818687438965,
                0.6677846312522888
            ]
        }
    ],
    "materials" : [
        {
            "doubleSided" : true,
            "name" : "material",
            "pbrMetallicRoughness" : {
                "baseColorFactor" : [
                    0,
                    0,
                    0,
                    1
                ],
                "metallicFactor" : 0,
                "roughnessFactor" : 0.4000000059604645
            }
        },
        {
            "doubleSided" : true,
            "name" : "Material.001",
            "pbrMetallicRoughness" : {
                "baseColorFactor" : [
                    0.9437258243560791,
                    0.3932095170021057,
                    1,
                    1
                ],
                "metallicFactor" : 0,
                "roughnessFactor" : 0.4000000059604645
            }
        }
    ],
    "meshes" : [
        {
            "name" : "Prada_Logo_Mat_0",
            "primitives" : [
                {
                    "attributes" : {
                        "POSITION" : 0,
                        "NORMAL" : 1,
                        "TEXCOORD_0" : 2
                    },
                    "indices" : 3,
                    "material" : 0
                }
            ]
        },
        {
            "name" : "Renova_Shopping_Bag",
            "primitives" : [
                {
                    "attributes" : {
                        "POSITION" : 4,
                        "NORMAL" : 5,
                        "TEXCOORD_0" : 6
                    },
                    "indices" : 7,
                    "material" : 1
                }
            ]
        }
    ],
    "accessors" : [
        {
            "bufferView" : 0,
            "componentType" : 5126,
            "count" : 4598,
            "max" : [
                7.540670871734619,
                5.428554058074951,
                -28.098834991455078
            ],
            "min" : [
                -6.2711029052734375,
                5.192576885223389,
                -30.294450759887695
            ],
            "type" : "VEC3"
        },
        {
            "bufferView" : 1,
            "componentType" : 5126,
            "count" : 4598,
            "type" : "VEC3"
        },
        {
            "bufferView" : 2,
            "componentType" : 5126,
            "count" : 4598,
            "type" : "VEC2"
        },
        {
            "bufferView" : 3,
            "componentType" : 5123,
            "count" : 6648,
            "type" : "SCALAR"
        },
        {
            "bufferView" : 4,
            "componentType" : 5126,
            "count" : 1452,
            "max" : [
                16,
                7,
                -0.12062100321054459
            ],
            "min" : [
                -16,
                -7,
                -47.080379486083984
            ],
            "type" : "VEC3"
        },
        {
            "bufferView" : 5,
            "componentType" : 5126,
            "count" : 1452,
            "type" : "VEC3"
        },
        {
            "bufferView" : 6,
            "componentType" : 5126,
            "count" : 1452,
            "type" : "VEC2"
        },
        {
            "bufferView" : 7,
            "componentType" : 5123,
            "count" : 8256,
            "type" : "SCALAR"
        }
    ],
    "bufferViews" : [
        {
            "buffer" : 0,
            "byteLength" : 55176,
            "byteOffset" : 0
        },
        {
            "buffer" : 0,
            "byteLength" : 55176,
            "byteOffset" : 55176
        },
        {
            "buffer" : 0,
            "byteLength" : 36784,
            "byteOffset" : 110352
        },
        {
            "buffer" : 0,
            "byteLength" : 13296,
            "byteOffset" : 147136
        },
        {
            "buffer" : 0,
            "byteLength" : 17424,
            "byteOffset" : 160432
        },
        {
            "buffer" : 0,
            "byteLength" : 17424,
            "byteOffset" : 177856
        },
        {
            "buffer" : 0,
            "byteLength" : 11616,
            "byteOffset" : 195280
        },
        {
            "buffer" : 0,
            "byteLength" : 16512,
            "byteOffset" : 206896
        }
    ],
    "buffers" : [
        {
            "byteLength" : 223408,
            "uri" : "data:application/octet-stream;base64,"
        }
    ]
}
